<svg xmlns="http://www.w3.org/2000/svg" width="512" height="512" x="0" y="0" viewBox="0 0 64 64" style="enable-background:new 0 0 512 512" xml:space="preserve" class="">
    <g>
        <g xmlns="http://www.w3.org/2000/svg">
            <g>
                <path d="m50.818 25.878-1.948-3.9c-2.295-.129-4.502-.865-6.425-2.146l1.108-1.665c1.354.902 2.875 1.484 4.467 1.717-.015-.118-.021-.238-.021-.356v-.528c0-1.654 1.346-3 2.999-3h.002c.801 0 1.554.312 2.12.878s.878 1.32.878 2.122c0 1.615-1.282 2.936-2.883 2.998l1.493 2.987zm-.701-5.878h.881c.552 0 1-.449 1-1 0-.268-.104-.519-.292-.708-.188-.188-.439-.292-.707-.292-.552 0-1.001.448-1.001 1v.528c0 .153.037.308.106.447z" fill="#976947" data-original="#976947"></path></g><g><path d="m40.85 25.882-1.973-3.903c-2.297-.128-4.507-.864-6.432-2.147l1.108-1.665c1.354.902 2.875 1.484 4.467 1.717-.015-.118-.021-.238-.021-.356v-.528c0-1.654 1.346-3 2.999-3h.002c.801 0 1.554.312 2.12.878s.878 1.32.878 2.122c0 1.611-1.276 2.93-2.871 2.997l1.507 2.984zm-.733-5.882h.881c.552 0 1-.449 1-1 0-.268-.104-.519-.292-.708-.188-.188-.439-.292-.707-.292-.552 0-1.001.448-1.001 1v.528c0 .153.037.308.106.447z" fill="#c18e59" data-original="#c18e59"></path></g><path d="m60 36v-26c0 2.209-1.791 4-4 4v22z" fill="#d5cec2" data-original="#d5cec2"></path><path d="m4 36v-26c0 2.209 1.791 4 4 4v22z" fill="#d5cec2" data-original="#d5cec2"></path><path d="m12 10c0 2.209-1.791 4-4 4-2.209 0-4-1.791-4-4v-2l4-6h48l4 6v2c0 2.209-1.791 4-4 4-2.209 0-4-1.791-4-4 0 2.209-1.791 4-4 4-2.209 0-4-1.791-4-4 0 2.209-1.791 4-4 4-2.209 0-4-1.791-4-4 0 2.209-1.791 4-4 4-2.209 0-4-1.791-4-4 0 2.209-1.791 4-4 4-2.209 0-4-1.791-4-4 0 2.209-1.791 4-4 4-2.209 0-4-1.791-4-4z" fill="#96cc7f" data-original="#96cc7f" class=""></path><g fill="#669e4f"><path d="m28 2v6 2c0 2.209-1.791 4-4 4-2.209 0-4-1.791-4-4v-2-6z" fill="#669e4f" data-original="#669e4f" class=""></path><path d="m44 2v6 2c0 2.209-1.791 4-4 4-2.209 0-4-1.791-4-4v-2-6z" fill="#669e4f" data-original="#669e4f" class=""></path><path d="m12 8 2-6h-6l-4 6v2c0 2.209 1.791 4 4 4 2.209 0 4-1.791 4-4z" fill="#669e4f" data-original="#669e4f" class=""></path><path d="m52 8-2-6h6l4 6v2c0 2.209-1.791 4-4 4-2.209 0-4-1.791-4-4z" fill="#669e4f" data-original="#669e4f" class=""></path><path d="m61 58h-58c-.552 0-1-.448-1-1v-20c0-.552.448-1 1-1h58c.552 0 1 .448 1 1v20c0 .552-.448 1-1 1z" fill="#669e4f" data-original="#669e4f" class=""></path></g><path d="m6 58v4h6v-4" fill="#78b75b" data-original="#78b75b" class=""></path><path d="m52 58v4h6v-4" fill="#78b75b" data-original="#78b75b" class=""></path><circle cx="11" cy="33" fill="#e39854" r="3" data-original="#e39854"></circle><circle cx="17" cy="33" fill="#c16b3f" r="3" data-original="#c16b3f" class=""></circle><circle cx="23" cy="33" fill="#e39854" r="3" data-original="#e39854"></circle><circle cx="29" cy="33" fill="#c16b3f" r="3" data-original="#c16b3f" class=""></circle><circle cx="14" cy="27" fill="#f2c351" r="3" data-original="#f2c351" class=""></circle><circle cx="20" cy="27" fill="#f7d881" r="3" data-original="#f7d881"></circle><circle cx="26" cy="27" fill="#f2c351" r="3" data-original="#f2c351" class=""></circle><circle cx="17" cy="21" fill="#e39854" r="3" data-original="#e39854"></circle><circle cx="23" cy="21" fill="#c16b3f" r="3" data-original="#c16b3f" class=""></circle><ellipse cx="51" cy="30" fill="#c66b60" rx="5" ry="6" data-original="#c66b60" class=""></ellipse><ellipse cx="41" cy="30" fill="#669e4f" rx="5" ry="6" data-original="#669e4f" class=""></ellipse><path d="m6 36v18h52v-18" fill="#96cc7f" data-original="#96cc7f" class=""></path><path d="m39 50h-14c-2.761 0-5-2.239-5-5 0-2.761 2.239-5 5-5h14c2.761 0 5 2.239 5 5 0 2.761-2.239 5-5 5z" fill="#f2c351" data-original="#f2c351" class=""></path><path d="m39 40h-14c-2.761 0-5 2.239-5 5s2.239 5 5 5h7.101c3.715-2.096 6.469-5.679 7.473-9.942-.191-.022-.378-.058-.574-.058z" fill="#f7d881" data-original="#f7d881">
                    
                </path>
                <path d="m41 24c-2.761 0-5 2.686-5 6 0 2.113.912 3.967 2.288 5.036 3.394-1.921 5.729-5.474 5.958-9.595-.874-.896-2.006-1.441-3.246-1.441z" fill="#78b75b" data-original="#78b75b" class="">

                </path>
                <path d="m51 24c-2.761 0-5 2.686-5 6 0 2.113.912 3.967 2.288 5.036 3.394-1.921 5.729-5.474 5.958-9.595-.874-.896-2.006-1.441-3.246-1.441z" fill="#e47c6e" data-original="#e47c6e" class="">

                </path>
                <path d="m6 58v4h2.073c1.298-.909 2.198-2.346 2.386-4z" fill="#96cc7f" data-original="#96cc7f" class="">

                </path>
                <path d="m52 58v4h2.073c1.298-.909 2.198-2.346 2.386-4z" fill="#96cc7f" data-original="#96cc7f" class="">

                </path>
            </g>
            </g>
            </svg>